<svg xmlns="http://www.w3.org/2000/svg" aria-hidden="true" style="position:absolute;width:0;height:0;overflow:hidden">
<defs><symbol id="icon-yaco" viewBox="0 0 32 32">
<path  d="m11.472 9.121 2.116 2.003-3.927-.002v9.717h10.264v-3.715l2.113 2V9.121H11.472zm8.36 7.767-5.998-5.679h5.998v5.679zm-1.863 2.529h-6.685v-6.535h.473v6.093h6.212v.443zm-5.106 2.715-.247.509-.247-.509h-.207l.36.678v.395h.187v-.395l.36-.678h-.206zm.31 1.073.087-.25h.416l.088.25h.195l-.406-1.073h-.167l-.405 1.073h.194zm.295-.845.155.445h-.311l.156-.445zm.983.419c-.027.041-.041.087-.041.136 0 .09.032.164.095.22s.149.084.255.084.198-.029.274-.086l.06.072h.208l-.158-.186c.062-.085.093-.193.093-.325h-.155c0 .072-.015.138-.045.197l-.207-.245.073-.053c.052-.037.089-.075.111-.112s.034-.079.034-.124c0-.068-.025-.125-.075-.17s-.114-.069-.192-.069c-.086 0-.155.025-.206.074s-.077.115-.077.199c0 .034.008.07.024.107s.046.082.088.134c-.08.057-.133.106-.16.148zm.485.237c-.053.04-.109.06-.169.06-.054 0-.096-.015-.128-.046s-.048-.071-.048-.121c0-.057.03-.109.088-.153l.023-.016.234.276zm-.193-.475c-.051-.062-.076-.114-.076-.155 0-.036.01-.066.031-.089s.048-.035.083-.035c.032 0 .059.01.08.03s.032.043.032.072c0 .042-.015.077-.046.104l-.023.018-.082.056zm1.747.583c.074-.064.116-.154.127-.268h-.186c-.01.077-.033.131-.07.164s-.092.049-.165.049c-.08 0-.141-.03-.183-.091s-.062-.149-.062-.265v-.095c.001-.114.023-.201.066-.26s.106-.089.187-.089c.07 0 .123.017.158.052s.059.089.068.167h.186c-.012-.117-.054-.208-.126-.273s-.168-.097-.286-.097c-.088 0-.166.021-.233.063s-.118.101-.154.178-.054.166-.054.268v.1c.001.099.02.186.055.26s.085.132.15.173c.065.04.141.06.226.06.122 0 .22-.032.294-.096zm1.096-.15c.036-.08.055-.172.055-.277v-.06c0-.105-.019-.196-.056-.275s-.089-.14-.157-.181c-.067-.042-.145-.063-.232-.063s-.165.021-.233.064c-.067.042-.12.103-.157.184s-.055.172-.055.277v.06c0 .103.019.193.056.272s.09.139.158.182c.068.042.146.063.233.063s.166-.021.233-.063c.068-.043.12-.104.156-.183zm-.2-.607c.045.063.068.154.068.273v.056c0 .121-.022.213-.067.276s-.108.094-.19.094-.145-.032-.192-.097-.069-.155-.069-.273v-.062c.001-.115.024-.205.069-.268s.109-.095.189-.095c.083 0 .146.032.191.095z" style="fill:var(--color1, #afb1b8)"/>
</symbol><symbol id="icon-brand" viewBox="0 0 32 32">
<path d="M8.078 20.448c.074.083.113.188.111.295.004.07-.01.14-.039.204s-.075.122-.132.168c-.143.099-.32.147-.499.136h-.877v-1.869h.859c.17-.01.338.034.476.124.055.043.099.096.128.157s.042.127.038.193c.005.103-.03.204-.1.286-.067.074-.159.126-.261.146.116.019.221.076.296.16zm-1.029-.282h.367c.083.006.166-.016.233-.062.028-.023.049-.051.063-.083s.019-.066.016-.1c.003-.034-.003-.068-.016-.099s-.034-.06-.061-.083c-.069-.047-.154-.069-.24-.063H7.05v.49zm.637.717c.029-.023.053-.053.068-.086s.022-.069.019-.104c.002-.036-.005-.072-.02-.105s-.039-.063-.069-.086c-.072-.049-.16-.073-.249-.068H7.05v.514h.39c.088.005.175-.018.246-.065zm2.147.369-.478-.73h-.18v.73h-.411v-1.869h.778c.196-.013.39.044.542.159.109.101.174.235.185.377s-.034.282-.127.396c-.096.101-.227.168-.371.19l.509.747h-.447zm-.657-.985h.336c.233 0 .35-.094.35-.283.002-.039-.004-.077-.019-.113s-.038-.069-.067-.097c-.074-.056-.169-.083-.264-.076h-.34l.004.569zm2.903.609h-.819l-.145.376h-.431l.752-1.848h.466l.749 1.848h-.431l-.142-.376zm-.11-.283-.299-.789-.299.789h.598zm2.921.659h-.408l-.914-1.271v1.271h-.407v-1.869h.407l.914 1.278v-1.278h.408v1.869zm2.327-.447c-.084.141-.213.256-.369.33-.178.082-.375.123-.573.118h-.726v-1.869h.726c.198-.005.395.035.573.115.156.072.285.186.369.326.084.152.128.32.128.49s-.044.338-.128.49zm-.466-.045c.116-.124.18-.282.18-.446s-.064-.322-.18-.446c-.141-.112-.324-.17-.511-.159h-.283v1.21h.283c.186.011.37-.046.511-.159zM12.334 8.986s5.264 1.82 5.153 4.453v4.454s-5.261-1.821-5.151-4.454l-.002-4.453zm9.843 7.865c.994-.627 2.144-1.015 3.345-1.129v-1.394c-1.383.488-2.557 1.373-3.345 2.523z" style="fill:var(--color1, #afb1b8)"/>
<path d="M21.579 17.271c.814-1.5 2.225-2.658 3.942-3.235v-4.018s-7.497 2.592-7.339 6.342v6.341s.334-.116.86-.333c0-.203 0-.407.024-.613.155-1.741 1.059-3.354 2.513-4.485z" style="fill:var(--color1, #afb1b8)"/><path fill="#afb1b8" d="M20.866 19.627c.039-.44.127-.875.262-1.298-.905.977-1.454 2.189-1.568 3.465-.011.121-.017.241-.02.365.426-.187.921-.421 1.442-.696-.133-.604-.172-1.222-.117-1.836zm.299.022c-.05.556-.019 1.115.093 1.663 2.048-1.122 4.35-2.856 4.261-4.952v-.183c-1.463.15-2.833.736-3.897 1.667-.249.577-.403 1.185-.457 1.804z" style="fill:var(--color1, #afb1b8)"/></symbol><symbol id="icon-company" viewBox="0 0 32 32">
<path d="M10.991 21.766c.005 0 .01.001.014.003s.008.004.012.007l.066.063c-.051.051-.114.092-.185.119-.083.03-.173.045-.263.043a.6848.6848 0 0 1-.247-.04c-.071-.026-.134-.064-.186-.113-.053-.051-.094-.11-.12-.175a.5785.5785 0 0 1-.042-.224.5484.5484 0 0 1 .045-.225c.029-.065.072-.124.128-.175.056-.049.123-.088.198-.114.081-.027.167-.041.254-.04.081-.002.161.011.236.036.065.025.125.059.177.101l-.055.067c-.004.005-.009.009-.014.012-.007.004-.014.006-.022.005s-.017-.003-.024-.007l-.03-.018-.041-.023c-.015-.007-.033-.015-.052-.021l-.003-.001c-.02-.007-.046-.013-.072-.017h-.003c-.027-.005-.059-.007-.09-.007h-.008c-.063-.001-.125.009-.183.03-.054.019-.103.048-.143.084-.041.039-.073.085-.093.134-.023.057-.035.117-.034.177-.001.061.01.122.034.18.02.049.051.095.091.134.038.036.084.065.137.083.054.019.111.029.17.029.034 0 .067-.001.1-.006.054-.006.106-.022.152-.048.025-.014.046-.029.066-.045l-.001.001c.008-.007.02-.011.031-.011zm1.901-.316c.001.076-.014.151-.044.222-.027.064-.069.123-.124.173s-.121.088-.195.113c-.161.053-.339.053-.5 0-.073-.026-.139-.065-.193-.114a.5139.5139 0 0 1-.125-.174c-.059-.144-.059-.302 0-.446.028-.065.071-.125.125-.175.055-.048.121-.085.193-.109.161-.054.339-.054.5 0 .073.026.139.064.194.114s.096.108.124.172c.031.072.046.148.044.224zm-.173 0c.001-.061-.009-.121-.031-.179-.018-.049-.048-.095-.088-.134a.37848.37848 0 0 0-.139-.084c-.117-.039-.247-.039-.364 0-.053.019-.101.048-.139.084-.04.039-.07.084-.089.134-.042.116-.042.241 0 .358.019.049.049.095.089.134.039.037.086.065.139.084.117.038.247.038.364 0 .053-.019.1-.047.139-.084.039-.039.069-.084.088-.134.022-.058.033-.118.031-.179zm1.47.188.017.04c.007-.014.012-.027.019-.04s.013-.027.021-.039l.421-.664c.008-.011.016-.019.024-.021s.018-.004.029-.004h.13v1.081h-.147v-.828c0-.006-.001-.012-.001-.019s0-.013.001-.019v.001l-.423.674c-.005.01-.014.019-.025.025s-.023.009-.036.009h-.024c-.013 0-.025-.003-.036-.009s-.019-.015-.025-.025l-.435-.678v.867h-.142v-1.078h.124c.012-.001.023.001.035.004.01.004.018.012.023.021l.43.665c.008.012.016.025.021.039zm1.583-.054v.405h-.165V20.91h.367c.069-.001.138.007.205.024.053.013.103.036.145.067.037.029.065.065.082.106.019.044.029.091.028.138.001.047-.01.094-.03.138-.02.041-.05.078-.089.108-.042.032-.092.057-.146.072-.064.018-.131.026-.198.025l-.199-.003zm0-.116h.199c.043 0 .086-.005.128-.016.034-.01.065-.026.092-.047.025-.02.044-.044.056-.072.013-.029.02-.06.02-.091.002-.03-.004-.06-.017-.088s-.032-.053-.058-.074c-.063-.043-.142-.063-.221-.058h-.199v.445zm2.212.522h-.13c-.013 0-.026-.003-.036-.01-.009-.007-.017-.015-.021-.025l-.112-.261h-.562l-.116.261c-.004.01-.011.018-.021.024-.01.007-.024.011-.037.011h-.13l.494-1.081h.171l.5 1.081zm-.815-.401h.464l-.196-.44a.71294.71294 0 0 1-.036-.096l-.001-.005-.019.056c-.006.017-.012.033-.018.046l-.194.439zm1.526-.674c.01.005.018.011.025.019l.72.815v-.839h.147v1.081h-.082c-.012 0-.023-.002-.034-.006s-.019-.012-.026-.02l-.719-.814c0 .006.001.012.001.019s0 .013-.001.019v-.001.803h-.147V20.91h.087c.01 0 .02.001.03.005zm2.106.645v.429h-.165v-.429l-.455-.651h.147c.013-.001.025.003.035.009.009.007.016.015.022.024l.285.42c.012.018.021.034.03.05s.015.031.021.046l.021-.047c.008-.017.017-.033.028-.049l.281-.423c.006-.009.013-.016.021-.023.01-.007.022-.011.035-.011h.149l-.456.654zm-6.693-2.464c.072.008.144.014.217.02 1.111-.432 2.05-1.138 2.701-2.031s.985-1.933.959-2.99l-1.224-1.063c.249 1.125.132 2.288-.336 3.359s-1.271 2.008-2.317 2.705z" style="fill:var(--color1, #afb1b8)"/><path fill="#afb1b8" d="m13.671 19.047.033.006c1.118-.695 1.971-1.665 2.447-2.786s.555-2.339.226-3.499l-1.743-1.515c.705 1.245.989 2.638.818 4.018s-.788 2.689-1.781 3.775zm5.912-3.703c-.296 1.161-1.015 2.209-2.051 2.986-.302.228-.629.432-.975.608.843-.215 1.618-.596 2.266-1.113s1.149-1.156 1.467-1.868l-.707-.614z" style="fill:var(--color1, #afb1b8)"/>
<path d="m19.305 15.173-1.007-.875c-.019.997-.346 1.972-.945 2.822s-1.45 1.546-2.463 2.014h.005c.238 0 .473-.013.705-.038l-.029.003c.947-.336 1.784-.87 2.435-1.555s1.098-1.5 1.299-2.371zm-5.489-4.558L12.615 9.57c-1.074.36-1.997.994-2.649 1.818s-1.003 1.8-1.006 2.8c.004 1.105.432 2.177 1.216 3.047s1.88 1.487 3.114 1.755c1.101-1.166 1.746-2.607 1.841-4.113s-.366-2.999-1.315-4.262zm8.264 4.397c-.004-1.311-.606-2.567-1.673-3.494s-2.513-1.449-4.022-1.453c-.697-.001-1.389.111-2.039.33l7.353 6.388c.252-.565.381-1.165.38-1.771z" style="fill:var(--color1, #afb1b8)"/></symbol><symbol id="icon-company-tag-line-here" viewBox="0 0 32 32">
<path d="M15.129 8.799h-.041c-.063-.004-.127-.005-.19-.007h-.137c-.12 0-.242.003-.364.009-.004 0-.009-.001-.014-.001s-.01 0-.014.001h.001c-1.1.062-2.178.337-3.175.81l-.131.063v6.684l.305-.104c.268-.092.554-.175.849-.252.73-.195 1.571-.313 2.437-.325h.007v.878c-.109.001-.215.004-.322.009h-.025c-.635.035-1.264.131-1.88.289-.78.195-1.533.489-2.24.873V9.153c.735-.428 1.526-.75 2.35-.956.664-.178 1.426-.282 2.213-.286h.131c.154.004.305.011.446.021.407.029.784.092 1.148.185l-.044-.01v.864c-.308-.075-.673-.133-1.047-.16l-.022-.001c-.109-.008-.116-.008-.124-.009l.102.007c-.075-.006-.149-.013-.219-.013zm1.521.884c.192.015.39.021.591.021.829-.003 1.631-.112 2.395-.313l-.066.015c.78-.196 1.532-.49 2.239-.874v8.42c-.735.428-1.526.75-2.351.956-.664.178-1.426.282-2.213.285h-.056c-.577 0-1.138-.072-1.673-.208l.047.01V9.521c.13.03.263.058.399.081.223.038.458.065.687.082zm4.285.065-.305.103c-.281.094-.564.179-.849.254-.761.204-1.635.322-2.536.325h-.002c-.199 0-.383-.005-.56-.017l-.244-.016v6.876l.209.018c.194.017.394.025.596.025.712-.003 1.4-.097 2.055-.272l-.057.013c.599-.152 1.119-.344 1.612-.583l-.05.022.131-.063V9.747zM10.789 20.657c-.043-.044-.095-.08-.152-.104l-.003-.001c-.05-.021-.108-.033-.168-.033h-.017.001-.007c-.068 0-.134.014-.193.038l.003-.001c-.059.024-.11.058-.153.101-.043.044-.077.096-.098.154-.022.054-.035.118-.035.184v1.151c-.003.081.013.161.045.235.027.059.066.111.115.154.046.039.1.066.157.081.056.016.113.024.171.024.064.001.127-.013.185-.04a.4888.4888 0 0 0 .153-.106c.043-.044.076-.097.1-.154.023-.053.037-.115.037-.181v-.13h-.299v.109c0 .034-.006.067-.018.097l.001-.002c-.01.025-.025.047-.043.064-.018.014-.039.026-.061.033h-.001c-.019.006-.04.01-.062.011-.005.001-.011.001-.018.001-.022 0-.043-.005-.062-.013h.001a.15755.15755 0 0 1-.062-.049c-.025-.04-.04-.089-.04-.142v-.012.001-1.08c0-.058.014-.113.038-.162l-.001.002c.016-.024.037-.043.063-.055h.001c.019-.009.041-.015.065-.015.006 0 .013 0 .019.001h-.001.006c.025 0 .049.006.07.016h-.001c.024.012.044.028.059.048.034.044.051.098.05.154v.099h.296V21.013c0-.07-.013-.138-.038-.199l.001.004c-.023-.063-.057-.116-.1-.161zm1.778-.013c-.095-.081-.216-.125-.341-.126-.061 0-.121.011-.179.032s-.112.053-.158.094c-.049.044-.088.097-.115.157l-.001.003c-.03.07-.045.146-.044.222v1.099c-.002.077.013.154.044.225.027.059.067.111.116.154.046.042.1.075.158.097.057.021.118.032.179.032s.121-.011.179-.032c.06-.022.114-.054.162-.097s.086-.095.113-.154c.031-.071.046-.148.044-.225v-1.109c0-.076-.016-.149-.045-.215l.001.003c-.028-.063-.066-.116-.113-.16zm-.14 1.481c0 .005.001.011.001.017 0 .025-.005.049-.013.071v-.001c-.011.029-.027.053-.048.073-.038.032-.087.051-.141.051-.054 0-.103-.019-.141-.052-.021-.02-.037-.044-.047-.071v-.001c-.008-.021-.013-.044-.013-.069 0-.006 0-.012.001-.018v.001-1.099c0-.005-.001-.011-.001-.017 0-.025.005-.049.013-.071v.001c.011-.029.027-.053.048-.073.04-.033.089-.051.141-.051.054 0 .103.019.141.052.021.02.037.044.047.071v.001c.008.021.013.044.013.069 0 .006 0 .012-.001.018v-.001 1.099zm2.476.49v-2.08h-.288l-.378 1.101h-.005l-.381-1.101h-.285v2.08h.297V21.35h.005l.291.894h.148l.293-.894h.005v1.265h.297zm1.688-1.934c-.045-.05-.101-.089-.165-.113l-.003-.001c-.061-.02-.131-.032-.204-.032h-.453v2.08h.296v-.812h.153c.092.004.184-.015.267-.057.067-.037.124-.092.163-.159.034-.055.057-.117.068-.181.01-.066.016-.141.016-.218v-.02.001-.034c0-.093-.011-.184-.031-.271l.002.008c-.021-.075-.059-.139-.109-.191zm-.153.634c-.001.04-.011.077-.028.11l.001-.001c-.017.032-.043.057-.075.073h-.001a.2939.2939 0 0 1-.14.026h-.135v-.707h.167c.043 0 .085.01.121.027l-.002-.001c.031.018.055.044.069.076v.001c.016.037.025.076.026.116v.138c0 .048.003.098 0 .143h-.003zm1.557-.78h-.243l-.458 2.08h.296l.087-.447h.404l.087.447h.296l-.47-2.08zm-.274 1.35.146-.754h.005l.145.754h-.296zm2.188-.097h-.005l-.448-1.253h-.285v2.08h.296v-1.251h.006l.453 1.251h.279v-2.08h-.296v1.253zm1.811-1.253-.238.827h-.006l-.238-.827h-.314l.407 1.201v.879h.296v-.879l.407-1.201h-.314zM9.962 23.202h.143v.401h.097v-.401h.142v-.082h-.382v.082zm1.201-.082-.187.483h.103l.04-.11h.192l.041.11h.105l-.192-.483h-.103zm-.015.292.066-.179.066.179h-.131zm1.202.013h.112v.062c-.031.025-.071.04-.114.041h-.007c-.018 0-.035-.004-.051-.011h.001c-.018-.008-.034-.02-.045-.035-.026-.037-.038-.081-.036-.126 0-.107.047-.161.139-.161h.01c.022 0 .042.007.059.019.02.014.034.034.04.058v.001l.095-.018c-.021-.094-.089-.142-.205-.142-.062-.002-.122.021-.169.062-.024.023-.043.052-.055.084l-.001.002c-.009.025-.015.053-.015.083 0 .006 0 .012.001.019v-.001.011c0 .065.023.124.062.17.023.024.051.043.082.055l.002.001c.025.01.054.016.084.016.005 0 .011 0 .016-.001h-.001c.076.002.149-.025.205-.077v-.19h-.209v.081zm1.212-.305h-.098v.483h.338v-.082h-.241v-.401zm1.024 0h-.098v.483h.098v-.483zm1.002.323-.198-.322h-.095v.483h.091v-.316l.194.316h.097v-.483h-.089v.322zm.906-.053h.241v-.082h-.241v-.106h.259v-.082h-.357v.483h.367v-.082h-.269v-.131zm2.196-.079h-.19v-.19h-.097v.483h.097v-.211h.19v.211h.097v-.483h-.097v.19zm.912.079h.241v-.082h-.241v-.106h.26v-.082h-.357v.483h.366v-.082h-.269v-.131zm1.235 0c.084-.013.127-.058.127-.134.001-.004.001-.009.001-.014 0-.017-.004-.033-.01-.047v.001c-.009-.019-.022-.035-.038-.047a.27528.27528 0 0 0-.123-.029c-.007 0-.013 0-.02.001h.001-.205v.483h.097v-.202h.019c.021-.001.041.002.06.011.014.009.026.021.034.035l.105.154h.116l-.059-.094c-.027-.047-.063-.086-.106-.115l-.001-.001zm-.098-.066h-.072v-.121h.076c.006-.001.013-.001.02-.001.028 0 .055.005.08.013h-.002c.007.006.012.014.016.022.004.009.005.018.005.028s-.003.019-.008.027-.011.015-.018.021c-.024.008-.052.012-.081.012-.006 0-.012 0-.019-.001h.001zm1.03.066h.241v-.082h-.241v-.106h.26v-.082h-.357v.483h.367v-.082h-.269v-.131z" style="fill:var(--color1, #afb1b8)"/>
<symbol id="icon-company-tag-line" viewBox="0 0 32 32">
<path d="M16.128 15.218c-.134-.178-.198-.389-.183-.6v-.87c0-.267.061-.47.182-.608s.329-.208.624-.207c.277 0 .473.059.59.177.127.151.188.335.174.521v.205h-.495V13.602c0-.062-.005-.123-.016-.182l.001.006c-.007-.046-.032-.088-.071-.12-.051-.035-.115-.051-.179-.047-.068-.004-.135.013-.189.05-.043.036-.072.082-.082.133-.014.071-.021.143-.019.215v1.056c-.008.102.014.204.064.297.025.031.059.056.099.072s.084.021.128.017c.063.005.126-.013.175-.048.04-.035.066-.08.074-.128.012-.07.017-.141.015-.212v-.214h.495v.196c.014.194-.046.386-.171.547-.114.129-.308.194-.593.194s-.5-.069-.623-.213zm2.063.008c-.125-.136-.188-.333-.188-.594v-.916c0-.259.063-.454.188-.587s.334-.199.628-.198c.291 0 .499.066.625.198s.189.329.189.587v.916c0 .259-.064.457-.191.593s-.334.205-.623.205c-.288 0-.502-.069-.628-.204zm.858-.219c.045-.085.065-.178.059-.271v-1.121c.006-.091-.014-.182-.058-.266-.025-.032-.06-.057-.101-.073s-.086-.021-.131-.016c-.044-.005-.09 0-.131.016s-.076.041-.102.073c-.045.083-.066.174-.059.266v1.126c-.006.093.014.186.059.271.029.029.064.051.104.067s.083.024.127.024.087-.008.127-.024.076-.039.104-.067v-.005zm1.178-2.049h.533l.401 1.689.41-1.689h.519l.052 2.438h-.384l-.041-1.695-.396 1.695h-.308l-.41-1.701-.038 1.701h-.388l.048-2.438zm2.514 0h.831c.479 0 .718.231.718.692 0 .442-.252.663-.756.662h-.283v1.084h-.513l.003-2.438zm.71 1.042c.051.006.102.002.151-.012s.093-.036.131-.065c.059-.082.085-.179.074-.275.003-.074-.006-.149-.025-.221-.007-.024-.02-.047-.038-.067s-.04-.037-.065-.049a.53732.53732 0 0 0-.229-.039h-.199v.729h.199zm1.578-1.042h.551l.565 2.438h-.478l-.112-.562h-.491l-.115.562h-.485l.565-2.438zm.471 1.594-.192-1.023-.192 1.023h.384zm1.101-1.594h.359l.687 1.391v-1.391h.426v2.438h-.342l-.691-1.452v1.452h-.44l.001-2.438zm2.469 1.509-.571-1.505h.481l.349.967.327-.967h.471l-.564 1.505v.93h-.492v-.93zm-12.15 1.995v.128h-.418v.991h-.175v-.991h-.42v-.128h1.014zm1.312 1.119h-.135a.0568.0568 0 0 1-.038-.011.05823.05823 0 0 1-.023-.026l-.121-.266h-.58l-.121.266c-.003.011-.01.021-.018.03-.011.007-.024.011-.038.011h-.135l.513-1.118h.178l.519 1.114zm-.849-.415h.484l-.205-.455c-.013-.029-.026-.064-.037-.1l-.001-.006c-.007.021-.013.042-.019.059l-.018.047-.203.454zm1.733.305c.032.001.064.001.096 0 .028-.002.055-.007.082-.013.025-.005.05-.012.074-.02.023-.008.045-.018.069-.027v-.252h-.207c-.005 0-.009-.001-.013-.002-.005-.002-.009-.004-.013-.007a.0236.0236 0 0 1-.008-.009c-.002-.003-.002-.006-.002-.01v-.087h.398v.429c-.029.018-.063.036-.098.051l-.005.002c-.032.014-.069.027-.109.037l-.005.001c-.042.011-.085.018-.128.023s-.096.007-.148.007h-.002c-.088.001-.176-.013-.258-.042-.077-.027-.147-.066-.205-.117-.057-.051-.102-.111-.132-.177-.032-.074-.048-.153-.047-.232-.001-.08.015-.159.046-.234.029-.066.075-.127.132-.177s.128-.09.205-.116c.088-.029.181-.043.275-.042.048 0 .095.003.143.01.042.006.083.015.122.028.036.012.07.026.103.044s.061.037.089.058l-.049.069c-.004.006-.01.012-.017.015s-.015.006-.023.006c-.011 0-.022-.003-.032-.009-.015-.007-.032-.016-.05-.027s-.042-.021-.066-.029l-.003-.001a.65044.65044 0 0 0-.09-.024l-.004-.001c-.037-.006-.08-.01-.124-.01h-.007c-.068-.001-.135.01-.198.031-.057.02-.109.05-.151.089-.043.04-.075.088-.095.139-.046.121-.046.252 0 .373.022.053.057.101.103.141.042.038.093.069.15.089.065.019.134.027.203.022zm1.635-.018h.56v.128h-.731v-1.118h.175l-.004.991zm1.142.128h-.175v-1.118h.175v1.118zm.652-1.113c.01.005.02.012.027.02l.75.843c0-.006-.001-.013-.001-.02s0-.014.001-.021v.001-.833h.153v1.123h-.088a.08225.08225 0 0 1-.038-.006.12066.12066 0 0 1-.028-.021l-.749-.842v.87h-.147v-1.118h.091c.01 0 .02.002.029.006h-.001zm2.221-.006v.123h-.622v.369h.504v.119h-.504v.382h.622v.123h-.802v-1.116h.802zM6.388 9.556l7.787 1.909v6.689l-7.787-1.908v-6.69zm-.499-.57v7.585l8.785 2.154v-7.584L5.889 8.986z" style="fill:var(--color1, #afb1b8)"/><path fill="#afb1b8" d="m10.597 22.247-8.786-2.156v-7.584l8.786 2.155v7.585zM6.035 9.47l7.686 1.885-3.268 2.823-7.687-1.886 3.27-2.822zm-.146-.484-4.078 3.52 8.786 2.155 4.077-3.52-8.785-2.155zm5.203 12.834 3.582-3.094-3.582-.879v3.973z" style="fill:var(--color1, #afb1b8)"/></symbol><symbol id="icon-foster-peter" viewBox="0 0 32 32"><path fill="#afb1b8" d="M7.289 13.314h-.001c-.724 0-1.311.522-1.311 1.165v.001c0 .643.587 1.165 1.311 1.165h.001c.724 0 1.311-.522 1.311-1.165v-.001c0-.643-.587-1.165-1.311-1.165zm9.676-.372c-.002-.894-.402-1.75-1.113-2.382s-1.675-.988-2.68-.99c-1.006.002-1.97.357-2.681.989s-1.112 1.489-1.114 2.383v4.928s7.587-.751 7.588-4.927v-.001zM3.321 19.487c.002.622.28 1.218.775 1.657s1.165.688 1.865.689c.699-.002 1.37-.25 1.864-.689s.773-1.035.775-1.657v-3.429s-5.28.523-5.28 3.428zm2.639.614c-.137 0-.27-.036-.384-.104s-.202-.163-.255-.276c-.052-.112-.066-.236-.039-.355s.093-.229.189-.315c.097-.086.22-.144.354-.168s.273-.012.399.035.234.125.31.226.117.22.117.341c0 .081-.017.161-.052.236s-.085.143-.15.2c-.064.057-.141.103-.225.134s-.174.047-.265.047V20.1zm5.336-.338h-.509v.526h-.265v-1.288h.838v.215h-.573v.333h.509v.214zm1.275-.089c0 .127-.022.238-.067.333s-.109.169-.193.221c-.083.052-.179.078-.287.078-.107 0-.202-.026-.286-.077s-.149-.124-.195-.219c-.046-.096-.069-.205-.07-.329v-.064c0-.127.023-.238.068-.334s.111-.171.194-.222c.084-.052.179-.078.287-.078s.203.026.286.078c.084.051.148.125.194.222s.069.207.069.333v.058zm-.269-.058c0-.135-.024-.238-.072-.308s-.117-.105-.207-.105c-.089 0-.158.035-.206.104s-.073.17-.073.304v.063c0 .131.024.233.072.306s.118.109.209.109c.089 0 .157-.035.205-.104s.072-.172.072-.306v-.063zm1.13.335c0-.05-.018-.088-.053-.115s-.099-.055-.191-.085c-.092-.03-.165-.06-.218-.088-.146-.079-.219-.185-.219-.319 0-.07.019-.131.058-.186s.096-.098.169-.128c.074-.031.156-.046.248-.046s.174.017.246.05c.072.033.128.08.167.141s.06.13.06.207h-.265c0-.059-.019-.105-.056-.137s-.089-.049-.157-.049c-.065 0-.115.014-.151.042s-.054.063-.054.108c0 .042.021.077.063.105s.105.055.187.08c.151.045.261.102.33.169s.104.151.104.251c0 .111-.042.199-.127.263s-.198.095-.341.095c-.099 0-.189-.018-.271-.054s-.144-.086-.187-.149c-.042-.063-.064-.136-.064-.219h.266c0 .142.085.213.255.213.063 0 .112-.013.148-.038s.053-.062.053-.108zm1.416-.735h-.394v1.073h-.265v-1.073H13.8v-.215h1.049v.215zm.927.515h-.509v.345h.598v.213h-.863v-1.288h.861v.215h-.596v.307h.509v.208zm.72.086h-.211v.471h-.265V19h.479c.152 0 .269.034.352.102s.124.164.124.287c0 .088-.019.161-.057.22s-.095.105-.172.14l.279.526v.012h-.285l-.241-.471zm-.211-.214h.214c.067 0 .118-.017.155-.05s.055-.081.055-.141c0-.061-.017-.108-.052-.143s-.087-.052-.158-.052h-.213v.387zm1.608.232v.454h-.265v-1.288h.502c.097 0 .182.018.255.053s.13.086.17.151c.04.065.059.139.059.222 0 .126-.043.226-.13.299s-.206.109-.358.109h-.233zm0-.215h.237c.07 0 .124-.017.16-.05s.056-.08.056-.142c0-.063-.019-.114-.056-.153s-.088-.059-.154-.06h-.243v.404zm1.679.111h-.509v.345h.598v.213h-.863v-1.288h.861v.215h-.596v.307h.509v.208zm1.231-.515h-.394v1.073h-.265v-1.073h-.389v-.215h1.049v.215zm.927.515h-.509v.345h.598v.213h-.863v-1.288h.861v.215h-.596v.307h.509v.208zm.721.086h-.211v.471h-.265V19h.478c.152 0 .269.034.352.102s.124.164.124.287c0 .088-.019.161-.057.22s-.095.105-.172.14l.279.526v.012h-.285l-.241-.471zm-.212-.214h.214c.067 0 .118-.017.155-.05s.055-.081.055-.141c0-.061-.017-.108-.052-.143s-.087-.052-.158-.052h-.213v.387zm1.559.348c0-.05-.018-.088-.053-.115s-.099-.055-.191-.085c-.092-.03-.165-.06-.218-.088-.146-.079-.219-.185-.219-.319 0-.07.019-.131.058-.186s.096-.098.169-.128c.074-.031.156-.046.248-.046s.174.017.246.05c.072.033.128.08.167.141s.06.13.06.207h-.265c0-.059-.019-.105-.056-.137s-.089-.049-.157-.049c-.065 0-.115.014-.151.042s-.054.063-.054.108c0 .042.021.077.063.105s.105.055.187.08c.151.045.261.102.33.169s.103.151.103.251c0 .111-.042.199-.126.263s-.198.095-.34.095c-.099 0-.189-.018-.271-.054s-.144-.086-.187-.149c-.042-.063-.064-.136-.064-.219h.266c0 .142.085.213.255.213.063 0 .112-.013.148-.038s.053-.062.053-.108z" style="fill:var(--color1, #afb1b8)"/></symbol><symbol id="icon-linkedin" viewBox="0 0 32 32"><path fill="#afb1b8" d="M31.992 32H32V20.262c0-5.741-1.237-10.163-7.947-10.163-3.227 0-5.392 1.77-6.277 3.45h-.093v-2.914h-6.365v21.363h6.627V21.42c0-2.786.528-5.48 3.978-5.48 3.398 0 3.448 3.179 3.448 5.658V32h6.621zM.528 10.635h6.635V32H.528V10.635zM3.843 0C1.72 0 0 1.721 0 3.843c0 2.12 1.722 3.878 3.843 3.878 2.12 0 3.842-1.757 3.842-3.878S5.965.002 3.844 0z" style="fill:var(--color1, #afb1b8)"/></symbol><symbol id="icon-facebook" viewBox="0 0 32 32"><path fill="#afb1b8" d="M21.328 5.312h2.923V.224C23.019.081 21.591 0 20.143 0h-.156.008c-4.213 0-7.099 2.65-7.099 7.52V12H8.25v5.688h4.646V32h5.699V17.69h4.459l.707-5.688h-5.168V8.08c0-1.643.443-2.768 2.734-2.768z" style="fill:var(--color1, #afb1b8)"/></symbol><symbol id="icon-twitter" viewBox="0 0 32 32"><path fill="#afb1b8" d="M32 6.078c-1.1.493-2.376.857-3.713 1.028l-.068.007c1.36-.817 2.382-2.078 2.873-3.579l.013-.046c-1.198.722-2.591 1.273-4.076 1.573l-.084.014c-1.2-1.279-2.9-2.076-4.787-2.076-3.622 0-6.558 2.936-6.558 6.558v.004c0 .52.043 1.021.152 1.496-5.454-.266-10.28-2.88-13.522-6.861-.564.949-.899 2.092-.902 3.313v.001c0 2.272 1.171 4.286 2.914 5.451-1.091-.03-2.107-.325-2.994-.823l.033.017v.072c.003 3.165 2.236 5.807 5.213 6.44l.043.008c-.499.136-1.071.215-1.662.215h-.061.003c-.419 0-.843-.024-1.242-.112.85 2.598 3.261 4.509 6.13 4.57-2.215 1.746-5.046 2.8-8.123 2.8H1.57h.001c-.538 0-1.053-.026-1.57-.091 2.827 1.846 6.287 2.944 10.004 2.944h.063-.003c12.072 0 18.672-10 18.672-18.669 0-.288-.01-.57-.024-.848 1.299-.936 2.391-2.065 3.258-3.356l.03-.047z" style="fill:var(--color1, #afb1b8)"/></symbol><symbol id="icon-instagram" viewBox="0 0 32 32"><path fill="#afb1b8" d="M31.968 9.408c-.074-1.701-.349-2.869-.742-3.882-.424-1.111-1.054-2.059-1.85-2.837l-.001-.001c-.78-.792-1.724-1.419-2.778-1.827l-.054-.018C25.524.449 24.362.176 22.661.101 20.949.019 20.405 0 16.059 0c-4.344 0-4.888.019-6.595.094-1.699.074-2.869.349-3.88.742-1.112.424-2.06 1.054-2.839 1.85l-.001.001c-.791.78-1.418 1.724-1.825 2.778l-.018.054C.506 6.538.232 7.7.157 9.401c-.082 1.712-.101 2.256-.101 6.602 0 4.344.019 4.888.094 6.595.075 1.701.35 2.869.744 3.882.426 1.11 1.055 2.057 1.849 2.837l.001.001c.8.813 1.77 1.443 2.832 1.843 1.019.395 2.182.67 3.882.744 1.707.075 2.251.094 6.595.094 4.346 0 4.89-.019 6.595-.094 1.701-.074 2.869-.349 3.882-.742 2.157-.85 3.833-2.526 4.664-4.628l.019-.055c.394-1.019.669-2.182.744-3.882.075-1.707.093-2.251.093-6.595s-.006-4.888-.08-6.595zm-2.88 13.066c-.07 1.563-.333 2.406-.55 2.97-.552 1.399-1.64 2.486-3.004 3.024l-.036.012c-.56.219-1.411.482-2.968.55-1.688.075-2.194.094-6.464.094-4.269 0-4.782-.019-6.464-.094-1.563-.069-2.406-.331-2.97-.55-.721-.269-1.334-.676-1.836-1.192l-.001-.001c-.517-.503-.924-1.117-1.184-1.803L3.6 25.45c-.218-.563-.48-1.413-.549-2.97-.075-1.688-.094-2.195-.094-6.464 0-4.27.019-4.784.094-6.464.069-1.563.331-2.406.549-2.97.269-.722.678-1.337 1.198-1.837l.002-.002c.504-.517 1.119-.923 1.806-1.182l.034-.011c.56-.219 1.411-.48 2.968-.55 1.688-.074 2.195-.093 6.464-.093 4.275 0 4.782.019 6.464.093 1.563.069 2.406.331 2.97.55.693.256 1.325.662 1.837 1.194.531.52.938 1.144 1.195 1.84.218.56.48 1.411.549 2.968.075 1.688.094 2.194.094 6.464 0 4.269-.019 4.768-.094 6.458z" style="fill:var(--color1, #afb1b8)"/><path fill="#afb1b8" d="M16.059 7.782c-4.539.002-8.218 3.682-8.219 8.221v.002c0 4.541 3.681 8.222 8.222 8.222s8.222-3.681 8.222-8.222c0-4.541-3.681-8.222-8.222-8.222h-.002zm0 13.552c-2.945 0-5.332-2.388-5.332-5.333s2.388-5.333 5.333-5.333h.001c2.946 0 5.334 2.388 5.334 5.334s-2.388 5.334-5.334 5.334zM26.525 7.458c0 1.06-.86 1.92-1.92 1.92s-1.92-.86-1.92-1.92.86-1.92 1.92-1.92 1.92.86 1.92 1.92z" style="fill:var(--color1, #afb1b8)"/></symbol><symbol id="icon-mail" viewBox="0 0 32 32"><path fill="#757575" d="M29 4H3C1.346 4 0 5.346 0 7v18c0 1.654 1.346 3 3 3h26c1.654 0 3-1.346 3-3V7c0-1.654-1.346-3-3-3zm0 2c.136 0 .266.028.384.078L16 17.678 2.616 6.078C2.729 6.029 2.861 6 3 6h26zm0 20H3c-.552 0-1-.448-1-1V8.19l13.344 11.566c.175.152.404.245.656.245s.481-.093.657-.246l-.001.001L30 8.19V25c0 .552-.448 1-1 1z" style="fill:var(--color3, #757575)"/></symbol><symbol id="icon-astronaut" viewBox="0 0 32 32"><path fill="#2196f3" d="M31.974 4.524c-.064-.191-.227-.332-.427-.362h-.003l-1.911-.278-.855-1.731c-.179-.365-.777-.365-.956 0l-.855 1.731-1.911.278c-.26.039-.457.26-.457.528 0 .15.062.285.161.382l1.383 1.348-.326 1.903c-.034.2.048.402.212.522.166.12.383.135.562.04l1.709-.899 1.709.899c.072.038.157.061.247.061.295 0 .534-.239.534-.534 0-.031-.003-.062-.008-.092v.003l-.326-1.903 1.383-1.348c.099-.097.161-.233.161-.382 0-.059-.009-.115-.027-.168l.001.004zm-2.463 1.327c-.126.122-.183.299-.153.472l.191 1.114-1-.526c-.072-.039-.158-.062-.249-.062s-.177.023-.252.063l.003-.001-1 .526.191-1.114c.005-.027.008-.059.008-.091 0-.149-.061-.285-.16-.381l-.811-.789 1.119-.163c.174-.025.324-.134.402-.292l.5-1.013.5 1.013c.078.158.228.267.402.292l1.119.162-.809.79zm-3.377 14.671h-1.067v1.067h1.067v-1.067zm0 2.134h-1.067v1.066h1.067v-1.066zm1.066-1.067h-1.067v1.067H27.2v-1.067zm-2.133 0H24v1.067h1.067v-1.067zm-2.667 4.8h-1.067v1.067H22.4v-1.067zm0 2.134h-1.067v1.067H22.4v-1.067zm1.067-1.067H22.4v1.067h1.067v-1.067zm-2.133 0h-1.067v1.067h1.067v-1.067zM16 24.256h-1.066v1.067H16v-1.067zm0 2.133h-1.066v1.067H16v-1.067zm1.067-1.067H16v1.067h1.067v-1.067zm-2.133 0h-1.067v1.067h1.067v-1.067zm-9.067-19.2H4.801v1.066h1.066V6.122zm0 2.134H4.801v1.066h1.066V8.256zm1.066-1.067H5.866v1.067h1.066V7.189zm-2.133 0H3.733v1.067H4.8V7.189z" style="fill:var(--color4, #2196f3)"/><path fill="#212121" d="M24.715 14.16c-.28-.376-.699-.636-1.179-.703l-.009-.001c-.076-.012-.164-.018-.254-.018-.411 0-.789.139-1.09.373l.004-.003-1.253.96-1.898 1.417-1.358-.541c2.421-1.086 4.113-3.508 4.113-6.32 0-3.823-3.122-6.934-6.961-6.934S7.869 5.5 7.869 9.324c0 1.386.415 2.674 1.12 3.759l-2.768-.024c-.009 0-.016.005-.023.005-.057.003-.11.014-.159.033l.004-.001c-.013.005-.026.007-.038.013-.006.003-.013.003-.019.006l-3.233 1.596s-.001 0-.001.001l-1.893.91c-.024.011-.045.023-.064.036l.001-.001c-.482.324-.795.867-.795 1.483 0 .297.073.577.201.823l-.005-.01c.22.424.592.742 1.043.885l.013.003c.161.053.345.083.537.083.308 0 .598-.078.851-.216l-.009.005 1.388-.738 2.264-1.169 1.357-.008-5.442 5.415c0 .001-.001.001-.001.001L.859 23.547c-.303.299-.491.714-.491 1.173v.005c.002.919.748 1.664 1.667 1.664h.002c.428 0 .854-.162 1.18-.485l1.314-1.309 1.741-1.3.901.897-3.102 3.088c-.303.299-.491.715-.491 1.174v.004c0 .445.174.864.49 1.179.302.3.717.485 1.176.485h.003c.427 0 .855-.162 1.18-.485l4.488-4.472c.007-.006.016-.009.022-.016l5.166-5.658 3.471.494c.025.004.05.006.075.006.064 0 .127-.016.187-.038.017-.006.032-.015.049-.023.019-.01.039-.015.058-.027l3.213-2.133c.012-.008.018-.021.029-.03.013-.01.029-.014.041-.026l1.271-1.191c.348-.326.564-.787.564-1.3 0-.4-.132-.769-.355-1.066l.003.005zM2.13 17.77c-.098.054-.215.086-.34.086-.078 0-.153-.013-.224-.036l.005.001c-.294-.093-.504-.364-.504-.683 0-.236.114-.445.29-.575l.002-.001 1.314-.632.316.924.133.389-.992.527zm3.497-1.828-1.548.8-.255-.746-.184-.537 2.027-1.001-.04 1.484zm15.1-6.62c0 .918-.219 1.785-.599 2.56l-4.181-1.899c-.044-.575-.342-1.072-.782-1.384l-.006-.004 1.464-4.86c2.377.756 4.104 2.974 4.104 5.588zm-11.789 0c0-3.235 2.644-5.867 5.894-5.867.253 0 .5.022.745.053l-1.432 4.753c-.019 0-.037-.006-.057-.006h-.001c-1.032 0-1.869.835-1.872 1.867.003 1.031.84 1.867 1.872 1.867h.001c.695 0 1.295-.383 1.618-.944l3.863 1.755c-1.075 1.446-2.795 2.389-4.737 2.389-3.25 0-5.894-2.632-5.894-5.867zm5.957.8c0 .441-.362.8-.806.8h-.001c-.443 0-.802-.358-.804-.8 0-.441.361-.8.806-.8s.806.359.806.8zM2.464 25.146c-.11.109-.261.176-.428.176s-.317-.067-.427-.175c-.109-.108-.176-.257-.176-.422s.067-.314.176-.422l.962-.959.852.848-.959.955zm3.214 3.734c-.11.109-.261.176-.428.176s-.317-.067-.427-.175c-.109-.108-.176-.257-.176-.422s.067-.314.176-.422l.963-.959.852.848-.96.955zm3.482-3.469-.001.001-1.765 1.76-.852-.848 1.765-1.757c.04-.04.065-.088.09-.136.007-.014.02-.026.026-.04.016-.041.019-.085.026-.128.003-.025.014-.048.014-.073 0-.035-.013-.07-.02-.105-.006-.032-.006-.064-.019-.096-.025-.053-.055-.098-.092-.138-.01-.012-.014-.027-.025-.038h-.001s0-.001-.001-.002l-1.607-1.6c-.017-.017-.039-.024-.058-.038-.025-.021-.054-.04-.084-.057l-.003-.001c-.026-.013-.058-.023-.09-.031l-.003-.001c-.03-.009-.065-.017-.101-.02h-.002c-.007 0-.015-.001-.023-.001-.026 0-.051.002-.075.005h.003c-.036.005-.069.009-.104.021-.036.013-.067.028-.096.046l.002-.001c-.02.011-.043.015-.061.029l-1.774 1.324-.901-.897 2.399-2.386 4.36 4.289-.928.919zm6.819-7.017c-.016-.002-.03.004-.046.003-.008 0-.017-.001-.027-.001-.031 0-.062.003-.092.008h.003c-.07.011-.132.035-.187.07l.002-.001c-.031.019-.058.039-.083.062-.013.011-.028.016-.04.029l-4.698 5.146-4.328-4.256 2.833-2.818c.096-.097.156-.23.156-.377 0-.295-.239-.534-.534-.534h-.002l-2.219.013.028-1.607 3.104.027c1.264 1.297 3.027 2.101 4.978 2.101h.003c.438 0 .864-.046 1.28-.122.04.032.08.064.129.085l2.41.96.152.759.178.885-3.003-.427zm4.041.178-.313-1.558 1.446-1.08.946 1.257-2.08 1.381zm3.753-2.831-.837.785-.931-1.237.831-.637c.155-.119.351-.168.543-.143.193.027.364.128.48.284.088.117.141.265.141.426 0 .206-.087.391-.226.521z" style="fill:var(--color5, #212121)"/>
<path  d="m13.602 18.544-2.143-2.134c-.096-.096-.229-.155-.376-.155s-.28.059-.376.155l-2.143 2.133c-.097.097-.156.23-.156.378s.06.281.156.378l2.142 2.134c.096.096.229.156.376.156s.28-.059.376-.156l2.143-2.134c.097-.097.157-.23.157-.378s-.06-.281-.157-.378zm-2.519 1.759-1.387-1.381 1.386-1.381 1.387 1.381-1.387 1.381zm6.081-15.232-.258 1.036c.071.018 1.738.452 1.738 2.149h1.067c0-2.017-1.666-2.965-2.547-3.184zm2.547 4.251h-1.067v1.066h1.067V9.322z" style="fill:var(--color5, #212121)"/>
</symbol>
<symbol id="icon-antenna" viewBox="0 0 32 32">
<path  d="m30.773 22.098-8.443-8.505.937-4.616c.225.09.485.144.758.146h.033c1.192 0 2.159-.967 2.159-2.159s-.967-2.159-2.159-2.159c-1.192 0-2.159.967-2.159 2.159 0 .259.046.508.13.739l-.005-.015-4.96.606L8.973.161c-.096-.098-.229-.159-.376-.16-.14.001-.274.057-.373.155L6.712 1.66c-.096.097-.156.23-.156.377s.06.281.156.377l.814.825C6.383 5.301 5.71 7.761 5.71 10.378c0 4.106 1.656 7.824 4.336 10.525l-.001-.001c.043.041.092.074.146.097-.032.164-.051.353-.052.546v6.188h-6.4c-1.472.001-2.666 1.194-2.667 2.666v1.067c0 .295.239.534.534.534H26.14c.294 0 .533-.239.533-.534v-1.067c-.002-1.472-1.195-2.665-2.666-2.666h-6.4v-2.742c1.003.21 2.024.317 3.049.32 2.58-.003 5.005-.663 7.117-1.822l-.077.039.818.823c.099.101.235.159.376.16.14-.001.274-.057.373-.155l1.512-1.504c.096-.097.156-.23.156-.377s-.06-.281-.156-.377zM23.28 6.233c.193-.192.459-.31.752-.31.589 0 1.067.478 1.067 1.066s-.477 1.066-1.067 1.066h-.004c-.587-.003-1.061-.479-1.061-1.066 0-.295.12-.563.314-.756h-.002zm-1.256 3.504-.598 2.946-1.175-1.183 1.774-1.763zm-.605-.902-1.92 1.909-1.486-1.493 3.406-.416zM24.004 28.8c.884 0 1.6.716 1.6 1.6v.534H2.138V30.4c0-.884.716-1.6 1.6-1.6h20.267zm-7.466-2.134v1.067h-5.334v-1.067h5.334zM11.204 25.6v-4.053c0-1.294 1.196-2.346 2.667-2.346s2.667 1.053 2.667 2.346V25.6h-5.334zm6.4-1.696v-2.357c0-1.882-1.675-3.413-3.733-3.413h-.058c-1.353 0-2.54.707-3.213 1.771l-.009.016c-2.36-2.482-3.812-5.846-3.812-9.55 0-2.314.567-4.496 1.569-6.414l-.036.077 18.602 18.709c-1.823.947-3.979 1.502-6.266 1.502-1.079 0-2.128-.124-3.136-.357l.093.018zm11.289-.684L7.836 2.039l.754-.752 7.935 7.98c.004 0 .006.007.01.01l13.114 13.191-.757.752z" style="fill:var(--color5, #212121)"/>
<path  d="M13.876 20.267h-.007c-.884 0-1.6.716-1.6 1.6s.715 1.599 1.597 1.6h.007c.884 0 1.6-.716 1.6-1.6s-.715-1.599-1.598-1.6zm.373 1.978c-.096.096-.229.155-.376.155-.295 0-.534-.239-.534-.534s.238-.533.532-.533c.293.001.531.239.531.533 0 .148-.06.282-.157.378h.005z" style="fill:var(--color4, #2196f3)"/>
</symbol>
<symbol id="icon-diagram" viewBox="0 0 32 32">
<path  d="M14.926 14.965h1.066v4.798h-1.066v-4.798zm4.264 2.132h1.066v2.665H19.19v-2.665zm-8.529 1.599h1.066v1.066h-1.066v-1.066zm-3.198-.533h1.066v1.599H7.463v-1.599z" style="fill:var(--color4, #2196f3)"/>
<path  d="M1.599 28.291h25.586c.883 0 1.599-.716 1.599-1.599V24.56c0-.883-.716-1.599-1.599-1.599h-.533V9.667l3.028-2.868c.207.104.452.166.711.166.888 0 1.608-.72 1.608-1.608s-.72-1.608-1.608-1.608c-.888 0-1.608.72-1.608 1.608 0 .247.056.481.155.69l-.004-.01-2.281 2.162v-1.23c0-.883-.716-1.599-1.599-1.599H3.731c-.883 0-1.599.716-1.599 1.599v15.992h-.533C.716 22.961 0 23.677 0 24.56v2.132c0 .883.716 1.599 1.599 1.599zM30.384 4.837c.294 0 .533.239.533.533s-.239.533-.533.533c-.294 0-.533-.239-.533-.533s.239-.533.533-.533zM3.198 6.969c0-.294.239-.533.533-.533h21.323c.294 0 .533.239.533.533v2.239l-1.066 1.013V8.036c0-.295-.239-.534-.534-.534H4.798c-.294 0-.534.239-.534.533v13.327c0 .294.239.533.534.533h19.189c.295 0 .534-.239.534-.533v-9.675l1.066-1.01V22.96H3.198V6.969zm4.798 6.93h-.005c-.883 0-1.599.716-1.599 1.599s.716 1.599 1.599 1.599c.432 0 .824-.172 1.112-.45l1.853.93c.215.107.476.057.636-.122l3.939-4.432 3.872 2.902c.208.155.498.139.686-.039l3.365-3.188v8.131H5.331V8.568h18.123v2.661l-3.771 3.572-3.904-2.927c-.088-.067-.2-.107-.32-.107-.158 0-.3.069-.398.178v.001l-3.993 4.493-1.493-.746c.011-.064.017-.128.02-.193 0-.883-.716-1.599-1.599-1.599zm.533 1.599c0 .294-.239.533-.533.533s-.533-.239-.533-.533c0-.294.239-.533.533-.533s.533.239.533.533zm3.198 8.528h5.33v.533c0 .294-.238.533-.533.533h-4.265c-.294 0-.533-.239-.533-.533v-.533zm-10.66.534c0-.294.238-.533.533-.533h9.062v.533c0 .883.716 1.599 1.599 1.599h4.265c.883 0 1.599-.716 1.599-1.599v-.533h9.062c.294 0 .533.239.533.533v2.132c0 .294-.239.533-.533.533H1.601c-.294 0-.533-.239-.533-.533V24.56z" style="fill:var(--color5, #212121)"/>

</symbol>
<symbol id="icon-clock" viewBox="0 0 32 32">
<path d="M31.296 15.301C31.295 6.849 24.441-.002 15.988 0S.685 6.855.687 15.308c.002 6.788 4.422 12.543 10.541 14.545l.108.031c.061.019.123.029.187.029.12 0 .238-.032.342-.094.135-.08.236-.207.283-.357l3.865-12.25c1.054-.004 1.906-.859 1.906-1.913 0-1.056-.856-1.913-1.913-1.913-.303 0-.59.071-.845.196l.011-.005-5.106-5.107c-.114-.11-.271-.179-.443-.179-.352 0-.638.286-.638.638 0 .172.068.328.179.443l5.103 5.109c-.121.241-.191.525-.191.826 0 .602.283 1.137.723 1.48l.004.003-3.682 11.673C3.843 25.782.117 17.709 2.797 10.431S13.551-.573 20.829 2.108c7.278 2.681 11.004 10.754 8.323 18.032-1.345 3.581-4.003 6.406-7.374 7.938l-.088.036-.398-1.874c-.063-.291-.318-.506-.624-.506-.164 0-.313.062-.426.163l.001-.001-3.837 3.426c-.132.117-.214.287-.214.477 0 .283.185.524.441.606l.005.001 4.899 1.563c.058.02.126.031.196.031.352 0 .637-.285.637-.637 0-.047-.005-.093-.015-.138l.001.004-.391-1.839c5.528-2.374 9.329-7.772 9.329-14.057v-.034.002zm-15.304-.637c.352 0 .638.286.638.638s-.285.638-.638.638c-.352 0-.638-.286-.638-.638s.286-.638.638-.638zm2.1 14.864 2.184-1.948.603 2.84-2.787-.892z" style="fill:var(--color5, #212121)"/>
<path  d="M15.354 3.185V4.46c0 .352.286.638.638.638s.638-.285.638-.638V3.185c0-.352-.285-.638-.638-.638s-.638.285-.638.638zM3.876 14.664c-.352 0-.638.286-.638.638s.285.638.638.638h1.275c.352 0 .638-.286.638-.638s-.285-.638-.638-.638H3.876zm24.232 1.275c.352 0 .638-.286.638-.638s-.285-.638-.638-.638h-1.275c-.352 0-.638.286-.638.638s.285.638.638.638h1.275z" style="fill:var(--color4, #2196f3)"/>
</symbol>
<symbol id="icon-check" viewBox="0 0 32 32">
<path stroke-width=".4923" d="m4.817 15.389-.169-.162-2.544 2.41 8.962 8.55L29.895 8.225l-2.527-2.411L11.066 21.35l-6.249-5.962z"/>
</symbol>
<symbol id="icon-person" viewBox="0 0 32 32">
<path d="M16 16c4.42 0 8-3.58 8-8s-3.58-8-8-8-8 3.58-8 8 3.58 8 8 8zm0 4c-5.34 0-16 2.68-16 8v2c0 1.1.9 2 2 2h28c1.1 0 2-.9 2-2v-2c0-5.32-10.66-8-16-8z"/>
</symbol>
<symbol id="icon-tel" viewBox="0 0 32 32">
<path d="m27.419 20.852-4.201-.48c-1.009-.116-2.002.232-2.713.943l-3.044 3.044C12.78 21.977 8.942 18.156 6.56 13.458l3.06-3.06c.711-.711 1.059-1.704.943-2.713l-.48-4.168C9.885 1.846 8.479.589 6.791.589H3.929C2.06.589.505 2.144.621 4.013c.877 14.126 12.174 25.407 26.284 26.284 1.869.116 3.424-1.439 3.424-3.308v-2.862c.016-1.671-1.241-3.077-2.911-3.275z"/>
</symbol>
<symbol id="icon-singup-email" viewBox="0 0 32 32">
<path d="M28 4H4C2.35 4 1.015 5.35 1.015 7L1 25c0 1.65 1.35 3 3 3h24c1.65 0 3-1.35 3-3V7c0-1.65-1.35-3-3-3zm-.6 6.375-10.605 6.63c-.48.3-1.11.3-1.59 0L4.6 10.375c-.375-.24-.6-.645-.6-1.08C4 8.29 5.095 7.69 5.95 8.215L16 14.5l10.05-6.285c.855-.525 1.95.075 1.95 1.08 0 .435-.225.84-.6 1.08z"/>
</symbol>
<symbol id="icon-send" viewBox="0 0 32 32">
<path d="M32 0 0 18l10.227 3.788L26 7 14.002 23.186l.01.004-.012-.004V32l5.735-6.691L27 28l5-28z"/>
</symbol>
<symbol id="icon-smartphone" viewBox="0 0 32 32">
<path  d="M23 0H9C7.346 0 6 1.346 6 3v26c0 1.654 1.346 3 3 3h14c1.654 0 3-1.346 3-3V3c0-1.654-1.346-3-3-3zM9 2h14c.552 0 1 .448 1 1v21H8V3c0-.552.448-1 1-1zm14 28H9c-.552 0-1-.448-1-1v-3h16v3c0 .552-.448 1-1 1z" style="fill:var(--color3, #757575)"/>
<path  d="M10.708 27.478c.18.163.293.399.293.66s-.113.497-.292.659l-.001.001c-.186.17-.435.275-.708.275s-.522-.104-.709-.275l.001.001c-.18-.163-.293-.399-.293-.66s.113-.497.292-.659l.001-.001c.186-.17.435-.275.708-.275s.522.104.709.275l-.001-.001z" style="fill:var(--color3, #757575)"/>
</symbol>

</defs>

</svg>